<?xml version="1.0" encoding="UTF-8"?>
<!DOCTYPE svg PUBLIC "-//W3C//DTD SVG 1.1//EN" "http://www.w3.org/Graphics/SVG/1.1/DTD/svg11.dtd">
<svg xmlns="http://www.w3.org/2000/svg" version="1.1" width="1200px" height="1200px" style="shape-rendering:geometricPrecision; text-rendering:geometricPrecision; image-rendering:optimizeQuality; fill-rule:evenodd; clip-rule:evenodd" xmlns:xlink="http://www.w3.org/1999/xlink">
<g><path style="opacity:0.998" fill="#dddddd" d="M 564.5,-0.5 C 587.833,-0.5 611.167,-0.5 634.5,-0.5C 823.267,14.9401 974.1,97.9401 1087,248.5C 1153.94,343.153 1191.44,448.487 1199.5,564.5C 1199.5,587.833 1199.5,611.167 1199.5,634.5C 1184.06,823.267 1101.06,974.1 950.5,1087C 855.847,1153.94 750.513,1191.44 634.5,1199.5C 611.167,1199.5 587.833,1199.5 564.5,1199.5C 456.581,1192.08 357.581,1158.75 267.5,1099.5C 271.915,1099.69 276.249,1099.19 280.5,1098C 291.616,1093.61 302.616,1088.94 313.5,1084C 325.692,1080.21 338.192,1078.38 351,1078.5C 367.206,1079.5 383.372,1081 399.5,1083C 454.743,1092.79 510.41,1098.29 566.5,1099.5C 643.149,1100.44 714.816,1082.27 781.5,1045C 882.457,980.962 925.957,889.129 912,769.5C 901.848,709.687 874.348,659.52 829.5,619C 807.256,599.543 783.256,582.543 757.5,568C 820.693,534.807 870.193,487.307 906,425.5C 937.632,368.745 946.298,308.745 932,245.5C 918.166,201.335 891.333,167.502 851.5,144C 809.685,120.093 764.685,106.093 716.5,102C 639.851,94.7993 564.517,101.466 490.5,122C 436.135,138.01 387.135,163.677 343.5,199C 299.543,236.161 271.543,282.994 259.5,339.5C 259.427,347.927 263.594,352.26 272,352.5C 276.578,351.628 280.745,349.795 284.5,347C 303.054,324.106 322.721,302.106 343.5,281C 420.672,211.317 511.672,177.817 616.5,180.5C 660.568,179.673 703.234,186.839 744.5,202C 809.776,230.353 839.276,280.186 833,351.5C 828.623,391.644 814.623,427.977 791,460.5C 757.82,507.026 713.653,538.193 658.5,554C 615.881,555.478 573.214,555.978 530.5,555.5C 540.852,476.692 552.352,398.026 565,319.5C 567.435,307.757 571.102,296.424 576,285.5C 581.942,275.893 588.275,266.56 595,257.5C 598.032,248.834 594.866,244.001 585.5,243C 566.995,242.722 549.995,247.722 534.5,258C 511.128,273.037 491.295,291.87 475,314.5C 467.769,325.861 463.102,338.194 461,351.5C 431.674,548.152 402.341,744.819 373,941.5C 366.292,970.757 351.125,994.591 327.5,1013C 314.215,1022.62 301.215,1032.62 288.5,1043C 278.778,1051.04 270.945,1060.54 265,1071.5C 261.149,1079.72 260.649,1088.05 263.5,1096.5C 166.829,1030.98 94.9953,944.648 48,837.5C 20.3236,772.466 4.15692,704.799 -0.5,634.5C -0.5,611.167 -0.5,587.833 -0.5,564.5C 14.9401,375.733 97.9401,224.9 248.5,112C 343.153,45.0562 448.487,7.55618 564.5,-0.5 Z"/></g>
<g><path style="opacity:1" fill="#374151" d="M 267.5,1099.5 C 265.77,1098.97 264.436,1097.97 263.5,1096.5C 260.649,1088.05 261.149,1079.72 265,1071.5C 270.945,1060.54 278.778,1051.04 288.5,1043C 301.215,1032.62 314.215,1022.62 327.5,1013C 351.125,994.591 366.292,970.757 373,941.5C 402.341,744.819 431.674,548.152 461,351.5C 463.102,338.194 467.769,325.861 475,314.5C 491.295,291.87 511.128,273.037 534.5,258C 549.995,247.722 566.995,242.722 585.5,243C 594.866,244.001 598.032,248.834 595,257.5C 588.275,266.56 581.942,275.893 576,285.5C 571.102,296.424 567.435,307.757 565,319.5C 552.352,398.026 540.852,476.692 530.5,555.5C 573.214,555.978 615.881,555.478 658.5,554C 713.653,538.193 757.82,507.026 791,460.5C 814.623,427.977 828.623,391.644 833,351.5C 839.276,280.186 809.776,230.353 744.5,202C 703.234,186.839 660.568,179.673 616.5,180.5C 511.672,177.817 420.672,211.317 343.5,281C 322.721,302.106 303.054,324.106 284.5,347C 280.745,349.795 276.578,351.628 272,352.5C 263.594,352.26 259.427,347.927 259.5,339.5C 271.543,282.994 299.543,236.161 343.5,199C 387.135,163.677 436.135,138.01 490.5,122C 564.517,101.466 639.851,94.7993 716.5,102C 764.685,106.093 809.685,120.093 851.5,144C 891.333,167.502 918.166,201.335 932,245.5C 946.298,308.745 937.632,368.745 906,425.5C 870.193,487.307 820.693,534.807 757.5,568C 783.256,582.543 807.256,599.543 829.5,619C 874.348,659.52 901.848,709.687 912,769.5C 925.957,889.129 882.457,980.962 781.5,1045C 714.816,1082.27 643.149,1100.44 566.5,1099.5C 510.41,1098.29 454.743,1092.79 399.5,1083C 383.372,1081 367.206,1079.5 351,1078.5C 338.192,1078.38 325.692,1080.21 313.5,1084C 302.616,1088.94 291.616,1093.61 280.5,1098C 276.249,1099.19 271.915,1099.69 267.5,1099.5 Z"/></g>
<g><path style="opacity:1" fill="#dddddd" d="M 518.5,623.5 C 567.168,623.333 615.834,623.5 664.5,624C 765.757,667.321 815.591,744.154 814,854.5C 810.506,935.989 769.006,985.822 689.5,1004C 652.096,1012.02 614.263,1015.52 576,1014.5C 529.044,1015.37 482.544,1011.37 436.5,1002.5C 436.34,1000.8 436.506,999.134 437,997.5C 453.761,980.323 465.094,959.989 471,936.5C 472.509,928.798 474.175,921.132 476,913.5C 489.859,816.722 504.026,720.055 518.5,623.5 Z"/></g>
</svg>
